<svg width="34" height="37" viewBox="0 0 34 37" fill="none" xmlns="http://www.w3.org/2000/svg">
<g filter="url(#filter0_d)">
<path d="M18.3337 2.73335V5.42669C23.6003 6.08002 27.667 10.56 27.667 16C27.667 20.28 25.107 24 21.3737 25.7067L18.3337 22.6667V29.3334H25.0003L23.3737 27.7067C27.547 25.4267 30.3337 21.0134 30.3337 16C30.3337 9.09335 25.067 3.40002 18.3337 2.73335ZM15.667 2.66669C13.067 2.93335 10.6003 3.94669 8.57366 5.61335L10.467 7.50669C11.9805 6.33999 13.7734 5.59062 15.667 5.33335V2.66669ZM6.60033 7.57335C4.94699 9.60002 3.93366 12.0667 3.66699 14.6667H6.33366C6.58699 12.7734 7.33366 10.9734 8.50699 9.46669L6.60033 7.57335ZM9.00033 10.6667V13.3334H13.0003V14.6667H11.667C10.2003 14.6667 9.00033 15.8667 9.00033 17.3334V21.3334H15.667V18.6667H11.667V17.3334H13.0003C14.4803 17.3334 15.667 16.1467 15.667 14.6667V13.3334C15.667 12.6261 15.386 11.9478 14.8859 11.4477C14.3858 10.9476 13.7076 10.6667 13.0003 10.6667H9.00033ZM17.0003 10.6667V17.3334H21.0003V21.3334H23.667V17.3334H25.0003V14.6667H23.667V10.6667H21.0003V14.6667H19.667V10.6667H17.0003ZM3.66699 17.3334C3.93366 19.9334 4.96033 22.4 6.62699 24.4267L8.52033 22.5334C7.34967 21.0208 6.59575 19.228 6.33366 17.3334H3.66699ZM10.4803 24.4934L8.57366 26.3867C10.5995 28.0407 13.0655 29.0651 15.667 29.3334V26.6667C13.7759 26.4153 11.9858 25.6652 10.4803 24.4934Z" fill="#FF5C00"/>
</g>
<defs>
<filter id="filter0_d" x="-2" y="0" width="38" height="39" filterUnits="userSpaceOnUse" color-interpolation-filters="sRGB">
<feFlood flood-opacity="0" result="BackgroundImageFix"/>
<feColorMatrix in="SourceAlpha" type="matrix" values="0 0 0 0 0 0 0 0 0 0 0 0 0 0 0 0 0 0 127 0"/>
<feOffset dy="4"/>
<feGaussianBlur stdDeviation="1.5"/>
<feColorMatrix type="matrix" values="0 0 0 0 1 0 0 0 0 0.360784 0 0 0 0 0 0 0 0 0.3 0"/>
<feBlend mode="normal" in2="BackgroundImageFix" result="effect1_dropShadow"/>
<feBlend mode="normal" in="SourceGraphic" in2="effect1_dropShadow" result="shape"/>
</filter>
</defs>
</svg>
