<svg width="36" height="37" viewBox="0 0 36 37" fill="none" xmlns="http://www.w3.org/2000/svg">
<g filter="url(#filter0_d)">
<path d="M25.867 23.1867C25.5203 22.12 24.5203 21.3334 23.3337 21.3334H22.0003V17.3334C22.0003 16.9797 21.8598 16.6406 21.6098 16.3905C21.3598 16.1405 21.0206 16 20.667 16H12.667V13.3334H15.3337C15.6873 13.3334 16.0264 13.1929 16.2765 12.9428C16.5265 12.6928 16.667 12.3536 16.667 12V9.33335H19.3337C20.0409 9.33335 20.7192 9.0524 21.2193 8.55231C21.7194 8.05221 22.0003 7.37393 22.0003 6.66669V6.12002C23.5956 6.76317 25.0113 7.78332 26.1262 9.09313C27.2411 10.4029 28.022 11.9634 28.4021 13.641C28.7822 15.3185 28.7501 17.0632 28.3086 18.7256C27.8671 20.3881 27.0293 21.9188 25.867 23.1867ZM16.667 26.5734C11.4003 25.92 7.33366 21.44 7.33366 16C7.33366 15.1734 7.44033 14.3734 7.61366 13.6134L14.0003 20V21.3334C14.0003 22.0406 14.2813 22.7189 14.7814 23.219C15.2815 23.7191 15.9597 24 16.667 24V26.5734ZM18.0003 2.66669C16.2494 2.66669 14.5156 3.01156 12.8979 3.68163C11.2802 4.35169 9.81035 5.33382 8.57224 6.57193C6.07175 9.07242 4.66699 12.4638 4.66699 16C4.66699 19.5362 6.07175 22.9276 8.57224 25.4281C9.81035 26.6662 11.2802 27.6484 12.8979 28.3184C14.5156 28.9885 16.2494 29.3334 18.0003 29.3334C21.5365 29.3334 24.9279 27.9286 27.4284 25.4281C29.9289 22.9276 31.3337 19.5362 31.3337 16C31.3337 14.2491 30.9888 12.5152 30.3187 10.8976C29.6487 9.2799 28.6665 7.81004 27.4284 6.57193C26.1903 5.33382 24.7204 4.35169 23.1028 3.68163C21.4851 3.01156 19.7513 2.66669 18.0003 2.66669Z" fill="#FF5C00"/>
</g>
<defs>
<filter id="filter0_d" x="-2" y="-1" width="40" height="40" filterUnits="userSpaceOnUse" color-interpolation-filters="sRGB">
<feFlood flood-opacity="0" result="BackgroundImageFix"/>
<feColorMatrix in="SourceAlpha" type="matrix" values="0 0 0 0 0 0 0 0 0 0 0 0 0 0 0 0 0 0 127 0"/>
<feOffset dy="3"/>
<feGaussianBlur stdDeviation="2"/>
<feColorMatrix type="matrix" values="0 0 0 0 1 0 0 0 0 0.36 0 0 0 0 0 0 0 0 0.3 0"/>
<feBlend mode="normal" in2="BackgroundImageFix" result="effect1_dropShadow"/>
<feBlend mode="normal" in="SourceGraphic" in2="effect1_dropShadow" result="shape"/>
</filter>
</defs>
</svg>
